<?xml version="1.0" encoding="UTF-8" standalone="no"?>
<!DOCTYPE svg PUBLIC "-//W3C//DTD SVG 1.1//EN" "http://www.w3.org/Graphics/SVG/1.1/DTD/svg11.dtd">
<svg width="100%" height="100%" viewBox="0 0 64 64" version="1.1" xmlns="http://www.w3.org/2000/svg" style="fill-rule:evenodd;clip-rule:evenodd;stroke-linejoin:round;stroke-miterlimit:2;">
    <g transform="matrix(-1.1864,0,0,1,55.2284,-3.55271e-14)">
        <path d="M35.001,2.826C35.99,3.816 36.561,5.273 36.561,6.808C36.561,8.344 35.99,9.801 35.001,10.79C27.901,17.891 13.791,32 13.791,32C13.791,32 27.901,46.109 35.001,53.21C35.99,54.199 36.561,55.656 36.561,57.192C36.561,58.727 35.99,60.184 35.001,61.174C35,61.175 34.999,61.176 34.999,61.176C33.367,62.808 30.982,62.808 29.351,61.176C23.306,55.131 9.165,40.99 3.063,34.888C2.345,34.17 1.931,33.114 1.931,32C1.931,30.886 2.345,29.83 3.063,29.112C9.165,23.01 23.306,8.869 29.351,2.824C30.982,1.192 33.367,1.192 34.999,2.824C34.999,2.824 35,2.825 35.001,2.826Z" />
    </g>
</svg>
