<?xml version="1.0" encoding="UTF-8" standalone="no"?><svg width="100%" height="100%" viewBox="0 0 507 377" version="1.1" style="fill-rule:evenodd;clip-rule:evenodd;stroke-linejoin:round;stroke-miterlimit:2;">
<path d="M187.664,242.176l-97.123,-97.123c-8.924,-8.924 -21.028,-13.937 -33.648,-13.937c-12.621,0 -24.724,5.013 -33.648,13.937c-3.089,3.089 -6.219,6.219 -9.308,9.308c-8.924,8.924 -13.937,21.027 -13.937,33.648c-0,12.62 5.013,24.724 13.937,33.648c38.747,38.746 97.123,97.123 97.123,97.123l3.283,-3.283l-3.628,3.628c0,-0 22.386,22.386 42.955,42.955c8.924,8.924 21.028,13.938 33.648,13.938c12.621,-0 24.724,-5.014 33.648,-13.938c64.893,-64.892 206.647,-206.647 271.54,-271.539c8.924,-8.924 13.937,-21.028 13.937,-33.648c0,-12.621 -5.013,-24.724 -13.937,-33.648c-3.089,-3.089 -6.219,-6.219 -9.308,-9.308c-8.924,-8.924 -21.027,-13.937 -33.648,-13.937c-12.62,-0 -24.723,5.013 -33.647,13.937l-228.239,228.239Z"/></svg>