<?xml version="1.0" encoding="UTF-8" standalone="no"?>
<svg width="100%" height="100%" viewBox="0 0 200 50" version="1.1" style="fill-rule:evenodd;clip-rule:evenodd;stroke-linejoin:round;stroke-miterlimit:2;">
    <g transform="matrix(-0.114299,0,0,0.129693,50.2669,0.0928761)">
        <path d="M383.724,25.938C382.728,23.99 380.11,23.765 378.227,23.765C371.703,23.765 358.934,27.107 339.608,32.166L333.295,33.816C303.954,41.47 275.855,63.124 263.856,72.37C263.7,72.491 263.544,72.61 263.391,72.728C274.334,58.44 303.29,14.339 300.882,9.22C300.614,8.651 300.089,8.324 299.443,8.324C296.801,8.324 293.863,11.228 288.528,16.499C280.929,24.008 268.211,36.576 245.276,51.68C230.556,61.373 214.675,75.229 200.665,87.453C182.679,103.147 165.689,117.97 157.664,117.97C156.159,117.97 155.043,117.432 154.252,116.325C143.832,101.737 133.115,93.887 122.4,92.994C120.129,92.805 117.782,92.609 115.395,92.609C106.409,92.609 96.246,95.087 82.848,113.059C79.869,117.055 50.999,120.351 29.92,122.758C18.727,124.036 9.059,125.14 3.923,126.192C1.123,126.766 -0.11,127.068 0.007,128.227C0.121,129.348 1.194,129.442 4.481,129.442C8.461,129.442 15.627,129.139 23.925,128.788C36.589,128.253 52.349,127.586 65.696,127.586C80.057,127.586 88.858,128.374 91.853,129.926C103.448,135.939 120.497,158.299 135.285,186.89C149.637,214.633 186.347,244.025 209.581,251.771C227.354,257.695 230.163,273.459 234.414,297.321C235.498,303.403 236.727,310.296 238.317,317.528C243.651,341.773 246.647,345.042 248.874,345.042C250.796,345.042 252.031,342.581 252.881,337.063C253,336.289 253.094,335.557 253.169,334.869C261.162,362.718 265.348,366.307 268.103,366.307C268.691,366.307 269.216,366.05 269.581,365.582C271.219,363.48 269.59,356.581 266.797,345.497C265.338,339.709 263.388,331.968 263.658,329.711C265.873,331.851 271.847,342.924 276.296,351.17C286.416,369.93 289.939,375.771 292.253,375.771C292.52,375.771 292.778,375.7 293.003,375.565C295.428,374.109 293.117,367.487 286.396,350.324C282.858,341.289 279.201,331.951 278.803,327.915C280.846,329.436 285.89,335.936 289.675,340.815C297.522,350.927 301.173,355.359 303.211,355.358C303.658,355.358 304.06,355.174 304.342,354.842C304.791,354.312 304.894,353.481 304.673,352.147C303.761,346.618 296.347,329.719 288.496,311.827C281.765,296.486 274.805,280.622 273.157,274.366C269.54,260.619 248.435,208.543 242.055,195.783C237.813,187.299 253.431,177.565 264.834,170.457C269.84,167.337 274.163,164.642 276.397,162.409C279.999,158.807 283.996,157.031 288.228,155.15C292.441,153.278 296.796,151.342 300.661,147.478C305.851,142.287 306.725,137.919 307.57,133.695C307.986,131.614 308.379,129.649 309.271,127.568C310.442,124.837 314.387,123.264 318.565,121.599C323.46,119.648 329.008,117.436 331.624,112.728C333.461,109.422 334.567,105.519 335.638,101.744C337.222,96.155 338.719,90.875 342.223,89.873C348.949,87.951 359.561,81.265 361.569,74.741L361.903,73.644C363.857,67.21 368.432,52.144 379.796,36.411C383.604,31.134 384.78,28.002 383.724,25.938Z" style="fill:none;fill-rule:nonzero;stroke:rgb(2,152,238);stroke-width:14.73px;"/>
    </g>
    <g transform="matrix(1,0,0,1,9.26815,-23.2038)">
        <g transform="matrix(1,0,0,1,47.2496,59.2632)">
            <text x="0px" y="0px" style="font-family:'Helvetica-Bold', 'Helvetica';font-weight:700;font-size:36px;fill:rgb(2,152,238);">coliop</text>
        </g>
        <g transform="matrix(1,0,0,1,153.131,67.3868)">
            <text x="0px" y="0px" style="font-family:'Helvetica';font-size:12px;fill:white;">Web</text>
        </g>
    </g>
</svg>
