<?xml version="1.0" encoding="UTF-8" standalone="no"?>
<svg width="100%" height="100%" viewBox="0 0 403 534" version="1.1" style="fill-rule:evenodd;clip-rule:evenodd;stroke-linejoin:round;stroke-miterlimit:2;">
    <path d="M240.913,0l-228.69,0c-3.242,-0 -6.351,1.288 -8.643,3.58c-2.292,2.292 -3.58,5.401 -3.58,8.643c0,71.718 0,437.169 0,508.888c-0,3.241 1.288,6.35 3.58,8.642c2.292,2.293 5.401,3.58 8.643,3.58c59.48,0 318.212,0 377.692,0c3.242,0 6.351,-1.287 8.643,-3.58c2.292,-2.292 3.58,-5.401 3.58,-8.642l-0,-360.908l-140.869,-0c-5.399,-0 -10.577,-2.145 -14.394,-5.962c-3.817,-3.818 -5.962,-8.995 -5.962,-14.394l-0,-139.847Zm160.268,106.002l-105.911,-105.911l-0,85.556c-0,11.242 9.113,20.355 20.355,20.355l85.556,0Z"/>
</svg>