<?xml version="1.0" encoding="UTF-8" standalone="no"?>
<!DOCTYPE svg PUBLIC "-//W3C//DTD SVG 1.1//EN" "http://www.w3.org/Graphics/SVG/1.1/DTD/svg11.dtd">
<svg width="100%" height="100%" viewBox="0 0 64 64" version="1.1" style="fill-rule:evenodd;clip-rule:evenodd;stroke-linejoin:round;stroke-miterlimit:2;">
    <g transform="matrix(1.48738,0,0,1.70997,-20.5492,-11.0493)">
        <path d="M56.844,24.431C56.844,23.853 56.58,23.299 56.11,22.89C55.64,22.481 55.003,22.251 54.338,22.251C46.726,22.251 23.934,22.251 16.322,22.251C15.657,22.251 15.02,22.481 14.55,22.89C14.08,23.299 13.816,23.853 13.816,24.431C13.816,24.918 13.816,25.433 13.816,25.919C13.816,26.498 14.08,27.052 14.55,27.461C15.02,27.87 15.657,28.099 16.322,28.099C23.934,28.099 46.726,28.099 54.338,28.099C55.003,28.099 55.64,27.87 56.11,27.461C56.58,27.052 56.844,26.498 56.844,25.919C56.844,25.433 56.844,24.918 56.844,24.431Z"/>
    </g>
    <g transform="matrix(9.10756e-17,1.48738,-1.70997,1.04705e-16,75.0493,-20.5492)">
        <path d="M56.844,24.431C56.844,23.853 56.58,23.299 56.11,22.89C55.64,22.481 55.003,22.251 54.338,22.251C46.726,22.251 23.934,22.251 16.322,22.251C15.657,22.251 15.02,22.481 14.55,22.89C14.08,23.299 13.816,23.853 13.816,24.431C13.816,24.918 13.816,25.433 13.816,25.919C13.816,26.498 14.08,27.052 14.55,27.461C15.02,27.87 15.657,28.099 16.322,28.099C23.934,28.099 46.726,28.099 54.338,28.099C55.003,28.099 55.64,27.87 56.11,27.461C56.58,27.052 56.844,26.498 56.844,25.919C56.844,25.433 56.844,24.918 56.844,24.431Z"/>
    </g>
</svg>
