<?xml version="1.0" encoding="UTF-8" standalone="no"?>
<!DOCTYPE svg PUBLIC "-//W3C//DTD SVG 1.1//EN" "http://www.w3.org/Graphics/SVG/1.1/DTD/svg11.dtd">
<svg width="100%" height="100%" viewBox="0 0 64 64" version="1.1" xmlns="http://www.w3.org/2000/svg" style="fill-rule:evenodd;clip-rule:evenodd;stroke-linejoin:round;stroke-miterlimit:2;">
    <g transform="matrix(1,0,0,1,-0.219257,2.6259)">
        <rect x="13.325" y="18.287" width="20.866" height="5.252"/>
    </g>
    <g transform="matrix(6.12323e-17,1,-1,6.12323e-17,44.4521,-0.219257)">
        <rect x="13.325" y="18.287" width="20.866" height="5.252"/>
    </g>
    <path d="M23.539,0C36.531,0 47.078,10.547 47.078,23.539C47.078,36.531 36.531,47.078 23.539,47.078C10.547,47.078 0,36.531 0,23.539C0,10.547 10.547,0 23.539,0ZM23.539,4.725C33.923,4.725 42.353,13.155 42.353,23.539C42.353,33.923 33.923,42.353 23.539,42.353C13.155,42.353 4.725,33.923 4.725,23.539C4.725,13.155 13.155,4.725 23.539,4.725Z"/>
    <g transform="matrix(0.707107,-0.707107,0.879071,0.879071,-27.815,37.6876)">
        <path d="M48.387,38.408L42.353,38.408L42.353,61.574C42.353,62.217 42.671,62.834 43.236,63.289C43.802,63.744 44.569,64 45.369,64C45.37,64 45.37,64 45.371,64C46.171,64 46.938,63.744 47.504,63.289C48.069,62.834 48.387,62.217 48.387,61.574C48.387,55.189 48.387,38.408 48.387,38.408Z"/>
    </g>
</svg>
